<?xml version="1.0" encoding="UTF-8"?><svg id="Calque_1" xmlns="http://www.w3.org/2000/svg" viewBox="0 0 46.76 44.52"><defs><style>.cls-1{fill:#efc456;stroke-width:0px;}</style></defs><path class="cls-1" d="M32.83,9.71c2.24-2.24,2.24-5.87,0-8.1-.14-.14-.29-.27-.44-.4-2.41-1.83-5.8-1.56-7.9.63l-1.12,1.12-1.12-1.12c-2.09-2.18-5.49-2.45-7.9-.63-2.46,2-2.83,5.61-.83,8.06.12.15.26.3.4.44l7.82,8.48c.83.9,2.24.96,3.15.13.04-.04.09-.08.13-.13l7.82-8.48h0Z"/><path class="cls-1" d="M41.55,11.18c-2.19.44-3.76,2.39-3.71,4.63v5.6c.11.09.23.17.33.27,2.49,2.55,2.53,6.61.08,9.2l-3.13,3.9c-.77.96-2.17,1.11-3.12.34l1.39-1.74,3.26-4.04c1.61-1.72,1.59-4.4-.05-6.09-1.67-1.56-4.29-1.47-5.85.21-.09.1-.18.2-.26.31l-4.01,4.94c-1.29,1.59-1.99,3.57-1.99,5.61v7.97c0,1.23,1,2.23,2.23,2.23h10.84c1.56,0,3.01-.82,3.82-2.16l4.11-6.86c.83-1.38,1.27-2.97,1.27-4.58v-15.34c0-2.46-2-4.46-4.46-4.45-.25,0-.5.02-.74.06h-.01Z"/><path class="cls-1" d="M5.38,42.36c.8,1.34,2.25,2.16,3.82,2.16h10.84c1.23,0,2.23-1,2.23-2.23v-7.97c0-2.04-.7-4.02-1.99-5.61l-4.01-4.94c-1.39-1.82-3.99-2.16-5.81-.77-.11.08-.21.17-.31.26-1.64,1.69-1.67,4.38-.05,6.09l3.26,4.04,1.39,1.74c-.96.77-2.35.61-3.12-.34l-3.13-3.9c-2.45-2.59-2.41-6.65.08-9.2.1-.1.22-.18.33-.27v-5.6c.05-2.24-1.51-4.19-3.71-4.63C2.77,10.78.47,12.41.06,14.84c-.04.24-.06.49-.06.74v15.34c0,1.61.44,3.2,1.27,4.58l4.11,6.86Z"/></svg>