<?xml version="1.0" encoding="UTF-8"?>
<svg xmlns="http://www.w3.org/2000/svg" version="1.1" viewBox="0 0 46.8 44.5">
  <defs>
    <style>
      .cls-1 {
        fill: #272343;
      }
    </style>
  </defs>
  <!-- Generator: Adobe Illustrator 28.7.1, SVG Export Plug-In . SVG Version: 1.2.0 Build 142)  -->
  <g>
    <g id="Calque_1">
      <path class="cls-1" d="M32.8,9.7c2.2-2.2,2.2-5.9,0-8.1-.1-.1-.3-.3-.4-.4-2.4-1.8-5.8-1.6-7.9.6l-1.1,1.1-1.1-1.1c-2.1-2.2-5.5-2.5-7.9-.6-2.5,2-2.8,5.6-.8,8.1.1.1.3.3.4.4l7.8,8.5c.8.9,2.2,1,3.1.1,0,0,0,0,.1-.1l7.8-8.5h0Z"/>
      <path class="cls-1" d="M41.5,11.2c-2.2.4-3.8,2.4-3.7,4.6v5.6c.1,0,.2.2.3.3,2.5,2.5,2.5,6.6,0,9.2l-3.1,3.9c-.8,1-2.2,1.1-3.1.3l1.4-1.7,3.3-4c1.6-1.7,1.6-4.4,0-6.1-1.7-1.6-4.3-1.5-5.9.2,0,.1-.2.2-.3.3l-4,4.9c-1.3,1.6-2,3.6-2,5.6v8c0,1.2,1,2.2,2.2,2.2h10.8c1.6,0,3-.8,3.8-2.2l4.1-6.9c.8-1.4,1.3-3,1.3-4.6v-15.3c0-2.5-2-4.5-4.5-4.4-.2,0-.5,0-.7,0h0Z"/>
      <path class="cls-1" d="M5.4,42.4c.8,1.3,2.2,2.2,3.8,2.2h10.8c1.2,0,2.2-1,2.2-2.2v-8c0-2-.7-4-2-5.6l-4-4.9c-1.4-1.8-4-2.2-5.8-.8-.1,0-.2.2-.3.3-1.6,1.7-1.7,4.4,0,6.1l3.3,4,1.4,1.7c-1,.8-2.3.6-3.1-.3l-3.1-3.9c-2.4-2.6-2.4-6.6,0-9.2.1-.1.2-.2.3-.3v-5.6c0-2.2-1.5-4.2-3.7-4.6C2.8,10.8.5,12.4,0,14.8c0,.2,0,.5,0,.7v15.3c0,1.6.4,3.2,1.3,4.6l4.1,6.9Z"/>
    </g>
  </g>
</svg>