<?xml version="1.0" encoding="UTF-8"?>
<svg xmlns="http://www.w3.org/2000/svg" version="1.1" viewBox="0 0 47.6 47.6">
  <defs>
    <style>
      .cls-1 {
        fill: #ffc003;
      }

      .cls-2 {
        fill: #272343;
      }
    </style>
  </defs>
  <!-- Generator: Adobe Illustrator 28.7.1, SVG Export Plug-In . SVG Version: 1.2.0 Build 142)  -->
  <g>
    <g id="Calque_1">
      <circle class="cls-2" cx="23.8" cy="23.8" r="23.8"/>
      <path class="cls-1" d="M31.8,27c2.7.8,4.7,2.4,5.9,4.6.5.8.5,1.8,0,2.7-.3.5-.6,1-.9,1.5-1.1,1.8-3.3,2.6-5.4,2.1-4.7-1.3-9.5-4-13.6-8.1s-6.8-8.9-8.1-13.6c-.6-2,.3-4.2,2.1-5.4.5-.3,1-.6,1.5-.9.8-.5,1.8-.5,2.7,0,2.3,1.3,3.8,3.2,4.6,5.9.3.9,0,1.8-.5,2.5l-1.4,1.7c-.8.9-.8,2.2-.2,3.2,1.5,2.3,3.5,4.2,5.8,5.8,1,.7,2.3.6,3.2-.2l1.7-1.4c.7-.6,1.6-.8,2.5-.5Z"/>
    </g>
  </g>
</svg>