<?xml version="1.0" encoding="UTF-8"?><svg id="Calque_1" xmlns="http://www.w3.org/2000/svg" viewBox="0 0 47.64 47.64"><defs><style>.cls-1{fill:#efc456;}.cls-1,.cls-2{stroke-width:0px;}.cls-2{fill:#fff;}</style></defs><circle class="cls-1" cx="23.82" cy="23.82" r="23.82"/><path class="cls-2" d="M23.82,9.98c-4.87,0-8.83,3.96-8.83,8.84,0,4.68,8.64,17.91,8.83,17.91s8.84-13.24,8.84-17.91-3.96-8.84-8.84-8.84ZM23.82,25.1c-3.46,0-6.28-2.82-6.28-6.28s2.82-6.29,6.28-6.29,6.29,2.82,6.29,6.29c0,3.46-2.81,6.28-6.29,6.28Z"/><path class="cls-2" d="M23.82,13.67c-2.84,0-5.14,2.31-5.14,5.15s2.3,5.14,5.14,5.14,5.15-2.3,5.15-5.14-2.3-5.15-5.15-5.15Z"/></svg>