<?xml version="1.0" encoding="UTF-8"?><svg id="Calque_1" xmlns="http://www.w3.org/2000/svg" viewBox="0 0 47.64 47.64"><defs><style>.cls-1{fill:#efc456;}.cls-1,.cls-2{stroke-width:0px;}.cls-2{fill:#fff;}</style></defs><circle class="cls-1" cx="23.82" cy="23.82" r="23.82"/><path class="cls-2" d="M25.62,27.13l11.75-12.73c.02.09.03.19.03.28v17.48c0,.97-.79,1.75-1.76,1.75H11.99c-.97,0-1.76-.79-1.76-1.75V14.68c0-.09.01-.19.03-.28l11.75,12.73c.47.5,1.12.78,1.8.78s1.33-.28,1.8-.78h0ZM23.82,25.96c.14,0,.26-.06.36-.15l11.85-12.83c-.12-.03-.25-.04-.38-.04H11.99c-.13,0-.25.01-.38.04l11.84,12.83c.09.1.22.16.36.16h0Z"/></svg>