<?xml version="1.0" encoding="UTF-8"?>
<svg xmlns="http://www.w3.org/2000/svg" version="1.1" viewBox="0 0 30.6 43.7">
  <defs>
    <style>
      .cls-1 {
        fill: #272343;
      }
    </style>
  </defs>
  <!-- Generator: Adobe Illustrator 28.7.1, SVG Export Plug-In . SVG Version: 1.2.0 Build 142)  -->
  <g>
    <g id="Calque_1">
      <path class="cls-1" d="M19,7.8h-7.5S8.1,1.5,8.6.8s3.1-1.4,4.1,0c1,1.4,3.8,1.7,3.8,1.7l.3,3.5,1-3.7s4.5-1.5,4,.7-2.7,4.8-2.7,4.8h0Z"/>
      <path class="cls-1" d="M26.7,21l-.3-.4c-1.8-2.2-6.9-8.4-6.9-8.4,0,0-.2-.1-.3-.1h-7.6c-.1,0-.2,0-.3.1,0,0-5.2,6.2-6.9,8.4l-.3.4C2.2,23.2-.2,26.2,0,32.7c.2,6.5.7,9.5,4.6,10.4,3.2.8,18.1.8,21.3,0,3.9-.9,4.4-3.9,4.6-10.4.2-6.5-2.2-9.5-3.9-11.7ZM16.5,35v2.4h-2.4v-2.2c-1.2,0-2.4-.5-3.2-1l-.3-.2.9-2.5.6.4c.8.5,1.9.9,2.9.9s2.1-.7,2.1-1.6-.6-1.5-2.2-2.1c-2.1-.8-3.9-1.9-3.9-4.3s1.3-3.5,3.3-4v-2.3h2.4v2.2c1,0,1.8.4,2.6.8l.4.2-.9,2.4-.5-.3c-.4-.2-1.2-.7-2.5-.7s-1.8.7-1.8,1.4.4,1.2,2.4,2c1.7.7,3.7,1.9,3.7,4.5s-1.4,3.6-3.5,4.2h0Z"/>
      <path class="cls-1" d="M19,10.8h-7.5c-.5,0-.9-.4-.9-.9s.4-.9.9-.9h7.5c.5,0,.9.4.9.9s-.4.9-.9.9Z"/>
    </g>
  </g>
</svg>