<?xml version="1.0" encoding="UTF-8"?><svg id="Calque_1" xmlns="http://www.w3.org/2000/svg" viewBox="0 0 30.63 43.65"><defs><style>.cls-1{fill:#efc456;stroke-width:0px;}</style></defs><path class="cls-1" d="M19.04,7.85h-7.47S8.05,1.48,8.62.8s3.1-1.39,4.1,0c1,1.39,3.75,1.71,3.75,1.71l.31,3.5,1-3.67s4.49-1.48,4.01.74-2.74,4.78-2.74,4.78h0Z"/><path class="cls-1" d="M26.66,21.05l-.33-.41c-1.8-2.25-6.9-8.35-6.95-8.41-.06-.08-.16-.12-.26-.12h-7.61c-.1,0-.2.05-.26.12-.05.06-5.15,6.16-6.95,8.41l-.33.41C2.2,23.23-.21,26.21.01,32.7c.22,6.51.72,9.46,4.64,10.39,3.17.75,18.14.75,21.32,0,3.91-.94,4.42-3.88,4.64-10.39.23-6.49-2.18-9.47-3.95-11.65ZM16.51,35.05v2.39h-2.41v-2.25c-1.19-.1-2.39-.49-3.16-1.04l-.31-.22.88-2.46.55.36c.82.55,1.87.86,2.89.86,1.26,0,2.11-.66,2.11-1.65,0-.9-.63-1.52-2.17-2.15-2.05-.8-3.95-1.88-3.95-4.29,0-1.96,1.29-3.47,3.33-3.97v-2.32h2.39v2.17c.98.09,1.84.36,2.61.81l.37.22-.92,2.42-.52-.3c-.36-.2-1.19-.68-2.52-.68s-1.82.71-1.82,1.38c0,.72.35,1.18,2.42,2.04,1.74.71,3.73,1.86,3.73,4.51,0,2.02-1.38,3.65-3.48,4.16h-.02Z"/><path class="cls-1" d="M19.04,10.82h-7.47c-.49,0-.89-.4-.89-.89s.4-.89.89-.89h7.47c.49,0,.89.4.89.89s-.4.89-.89.89Z"/></svg>