<?xml version="1.0" encoding="UTF-8"?><svg id="Calque_1" xmlns="http://www.w3.org/2000/svg" viewBox="0 0 42.71 45.06"><defs><style>.cls-1{fill:#efc456;stroke-width:0px;}</style></defs><path class="cls-1" d="M.9,22.26h3.32v21.9c0,.5.4.9.9.9h11.53c.5,0,.9-.41.9-.9v-9.9h7.6v9.9c0,.5.41.9.9.9h11.53c.5,0,.9-.41.9-.9v-21.9h3.32c.37,0,.69-.23.84-.56.14-.33.06-.72-.2-.98l-6.62-6.62V.9c0-.5-.41-.9-.9-.9h-5.34c-.5,0-.9.41-.9.9v6.05L21.99.26c-.33-.33-.94-.33-1.27,0L.26,20.72c-.25.26-.33.65-.19.98.14.33.46.56.83.56Z"/></svg>