<?xml version="1.0" encoding="UTF-8"?>
<svg xmlns="http://www.w3.org/2000/svg" version="1.1" viewBox="0 0 42.7 45.1">
  <defs>
    <style>
      .cls-1 {
        fill: #272343;
      }
    </style>
  </defs>
  <!-- Generator: Adobe Illustrator 28.7.1, SVG Export Plug-In . SVG Version: 1.2.0 Build 142)  -->
  <g>
    <g id="Calque_1">
      <path class="cls-1" d="M.9,22.3h3.3v21.9c0,.5.4.9.9.9h11.5c.5,0,.9-.4.9-.9v-9.9h7.6v9.9c0,.5.4.9.9.9h11.5c.5,0,.9-.4.9-.9v-21.9h3.3c.4,0,.7-.2.8-.6.1-.3,0-.7-.2-1l-6.6-6.6V.9c0-.5-.4-.9-.9-.9h-5.3c-.5,0-.9.4-.9.9v6.1L22,.3c-.3-.3-.9-.3-1.3,0L.3,20.7c-.2.3-.3.6-.2,1,.1.3.5.6.8.6Z"/>
    </g>
  </g>
</svg>