<?xml version="1.0" encoding="UTF-8"?><svg id="Calque_1" xmlns="http://www.w3.org/2000/svg" viewBox="0 0 43.66 43.66"><defs><style>.cls-1{fill:#efc456;fill-rule:evenodd;stroke-width:0px;}</style></defs><path class="cls-1" d="M18.64.52c2.01,1.01,4.37,1.01,6.38,0,.92-.48,1.81-.64,2.64-.42s1.51.8,2.07,1.68c1.24,1.87,3.28,3.06,5.52,3.19,1.04.04,1.89.35,2.49.95.6.6.91,1.45.95,2.49.13,2.24,1.31,4.29,3.19,5.52.88.56,1.46,1.25,1.68,2.07.22.82.06,1.71-.42,2.64-1.01,2.01-1.01,4.37,0,6.38.48.92.64,1.81.42,2.64-.22.82-.8,1.51-1.68,2.07-1.87,1.24-3.06,3.28-3.19,5.52-.04,1.04-.35,1.89-.95,2.49-.6.6-1.45.91-2.49.95-2.24.13-4.29,1.31-5.52,3.19-.56.88-1.25,1.46-2.07,1.68-.82.22-1.71.06-2.64-.42-2.01-1.01-4.37-1.01-6.38,0-.92.48-1.81.64-2.64.42-.82-.22-1.51-.8-2.07-1.68-1.23-1.87-3.28-3.06-5.52-3.19-1.04-.04-1.89-.35-2.49-.95-.6-.6-.91-1.45-.95-2.49-.13-2.24-1.31-4.29-3.19-5.52-.88-.56-1.46-1.25-1.68-2.07-.22-.82-.06-1.71.42-2.64,1.01-2.01,1.01-4.37,0-6.38-.48-.92-.64-1.81-.42-2.64s.8-1.51,1.68-2.07c1.87-1.23,3.06-3.28,3.19-5.52.04-1.04.35-1.89.95-2.49.6-.6,1.45-.91,2.49-.95,2.24-.13,4.29-1.31,5.52-3.19.56-.88,1.25-1.46,2.07-1.68.82-.22,1.71-.06,2.64.42ZM19.58,23.06c-.07.07-.19.07-.27,0-.69-.69-3.82-3.82-4.51-4.51-.07-.07-.19-.07-.27,0-.55.55-2.6,2.6-3.14,3.14-.07.07-.07.19,0,.27.98.98,6.95,6.95,7.92,7.92.07.07.19.07.27,0,1.29-1.29,11.4-11.4,12.69-12.69.07-.07.07-.19,0-.27-.55-.55-2.6-2.6-3.14-3.14-.07-.07-.19-.07-.27,0-1.07,1.07-8.2,8.2-9.27,9.27Z"/></svg>