<?xml version="1.0" encoding="UTF-8"?><svg id="Calque_1" xmlns="http://www.w3.org/2000/svg" viewBox="0 0 47.64 47.64"><defs><style>.cls-1{fill:#724ce2;}.cls-1,.cls-2{stroke-width:0px;}.cls-2{fill:#fff;}</style></defs><circle class="cls-2" cx="23.82" cy="23.82" r="23.82"/><path class="cls-1" d="M31.77,27.01c2.69.81,4.66,2.37,5.94,4.64.46.82.45,1.84-.02,2.66-.28.5-.58,1-.88,1.48-1.13,1.79-3.31,2.64-5.36,2.08-4.7-1.29-9.47-4.03-13.56-8.12s-6.83-8.86-8.12-13.56c-.56-2.04.29-4.22,2.08-5.36.49-.31.98-.6,1.48-.88.82-.46,1.84-.48,2.66-.02,2.27,1.28,3.82,3.25,4.64,5.94.26.86.07,1.79-.5,2.49l-1.37,1.68c-.75.92-.82,2.22-.16,3.21,1.55,2.31,3.48,4.24,5.79,5.79.98.66,2.29.59,3.21-.16l1.68-1.37c.7-.57,1.63-.76,2.49-.5Z"/></svg>